<mxfile host="app.diagrams.net" modified="2024-02-08T12:39:59.129Z" agent="Mozilla/5.0 (Windows NT 10.0; Win64; x64) AppleWebKit/537.36 (KHTML, like Gecko) Chrome/121.0.0.0 Safari/537.36" etag="th2-FyOX-8_YziUCBXTH" version="23.1.1" type="google">
  <diagram name="Page-1" id="tFYmwZ20nAyvykSt9PfG">
    <mxGraphModel dx="2100" dy="848" grid="1" gridSize="10" guides="1" tooltips="1" connect="1" arrows="1" fold="1" page="1" pageScale="1" pageWidth="827" pageHeight="1169" math="0" shadow="0">
      <root>
        <mxCell id="0" />
        <mxCell id="1" parent="0" />
        <mxCell id="GQCeR2Az25gr7jT-zu-K-3" value="" style="group" vertex="1" connectable="0" parent="1">
          <mxGeometry x="520" y="40" width="282" height="100" as="geometry" />
        </mxCell>
        <mxCell id="78i4ingWgwoJLtmG5PPk-2" value="&lt;div style=&quot;text-align: justify;&quot;&gt;&lt;span style=&quot;background-color: initial;&quot;&gt;Ðœoney&lt;/span&gt;&lt;/div&gt;" style="rounded=0;whiteSpace=wrap;html=1;align=center;" parent="GQCeR2Az25gr7jT-zu-K-3" vertex="1">
          <mxGeometry width="282" height="20" as="geometry" />
        </mxCell>
        <mxCell id="pYkmrV6XBfYOg06YjYWC-1" value="&lt;div style=&quot;&quot;&gt;&lt;font style=&quot;vertical-align: inherit;&quot;&gt;&lt;font style=&quot;vertical-align: inherit;&quot;&gt;&amp;lt;&amp;lt;create&amp;gt;+Money&lt;/font&gt;&lt;/font&gt;(self, amount:float, currency:str):&lt;/div&gt;&lt;div style=&quot;&quot;&gt;+__str__():void&lt;/div&gt;" style="rounded=0;whiteSpace=wrap;html=1;align=left;" parent="GQCeR2Az25gr7jT-zu-K-3" vertex="1">
          <mxGeometry y="60" width="282" height="40" as="geometry" />
        </mxCell>
        <mxCell id="GQCeR2Az25gr7jT-zu-K-1" value="+amount:int&lt;br&gt;+currency:str" style="rounded=0;whiteSpace=wrap;html=1;align=left;" vertex="1" parent="GQCeR2Az25gr7jT-zu-K-3">
          <mxGeometry y="20" width="282" height="40" as="geometry" />
        </mxCell>
        <mxCell id="GQCeR2Az25gr7jT-zu-K-14" value="" style="group" vertex="1" connectable="0" parent="1">
          <mxGeometry x="210" y="280" width="462" height="370" as="geometry" />
        </mxCell>
        <mxCell id="GQCeR2Az25gr7jT-zu-K-4" value="BankAccount" style="rounded=0;whiteSpace=wrap;html=1;" vertex="1" parent="GQCeR2Az25gr7jT-zu-K-14">
          <mxGeometry width="461.0191082802548" height="45.12195121951219" as="geometry" />
        </mxCell>
        <mxCell id="GQCeR2Az25gr7jT-zu-K-11" value="+accounts:List&lt;br&gt;-exchange_rate:Dict&lt;br&gt;+data_folder:str&lt;br&gt;#balance:Money&lt;br&gt;-account_number:str&lt;br&gt;+owner_name:str" style="rounded=0;whiteSpace=wrap;html=1;align=left;" vertex="1" parent="GQCeR2Az25gr7jT-zu-K-14">
          <mxGeometry y="45.12195121951219" width="461.0191082802548" height="99.26829268292684" as="geometry" />
        </mxCell>
        <mxCell id="GQCeR2Az25gr7jT-zu-K-13" value="&amp;lt;&amp;lt;create&amp;gt;&amp;gt;+__init__(owner_name:str,account_number:str,amount:float,currency:str)&lt;br&gt;+update_account_info_file():void&lt;br&gt;+deposit(amount:float):void&lt;br&gt;+withdraw(amount:float):void&lt;br&gt;+change_owner_name(new_owner_name:str):void&lt;br&gt;+display_account_info():str&lt;br&gt;+transfer(another_account:str,amount:float):void&lt;br&gt;&amp;lt;&amp;lt;static&amp;gt;&amp;gt;+check_account_number(account_number:str):bool&lt;br&gt;+account_number():str&lt;br&gt;+account_number(new_account_number:str):void&lt;br&gt;&amp;lt;&amp;lt;classmethod&amp;gt;&amp;gt;+find_account_by_owner(owner_name:str):List&lt;br&gt;&amp;lt;&amp;lt;classmethod&amp;gt;&amp;gt;+get_average_balance():float&lt;br&gt;+transfer_funds(target_account:str,amount:float):void&lt;br&gt;&amp;lt;&amp;lt;classmethod&amp;gt;&amp;gt;+create_exchange_rate():void&lt;br&gt;&amp;lt;&amp;lt;classmethod&amp;gt;&amp;gt;+delete_account(acount_number:str):str&lt;br&gt;" style="rounded=0;whiteSpace=wrap;html=1;align=left;" vertex="1" parent="GQCeR2Az25gr7jT-zu-K-14">
          <mxGeometry y="143.4878048780488" width="462" height="226.51219512195124" as="geometry" />
        </mxCell>
        <mxCell id="GQCeR2Az25gr7jT-zu-K-19" value="" style="group" vertex="1" connectable="0" parent="1">
          <mxGeometry x="235.5" y="850" width="411" height="200" as="geometry" />
        </mxCell>
        <mxCell id="GQCeR2Az25gr7jT-zu-K-15" value="NewBankAccount" style="rounded=0;whiteSpace=wrap;html=1;" vertex="1" parent="GQCeR2Az25gr7jT-zu-K-19">
          <mxGeometry width="411" height="30" as="geometry" />
        </mxCell>
        <mxCell id="GQCeR2Az25gr7jT-zu-K-16" value="+max_limit:float&lt;br&gt;+max_count_transactions:int&lt;br&gt;+max_count:float" style="rounded=0;whiteSpace=wrap;html=1;align=left;" vertex="1" parent="GQCeR2Az25gr7jT-zu-K-19">
          <mxGeometry y="30" width="410" height="60" as="geometry" />
        </mxCell>
        <mxCell id="GQCeR2Az25gr7jT-zu-K-17" value="&amp;lt;&amp;lt;create&amp;gt;&amp;gt;+__init__(owner_name:str,account_number:str,balance:Money,&lt;br&gt;currrence:str,max_linit:float,max_count_transactions:int)&lt;br&gt;&lt;br&gt;&amp;lt;&amp;lt;override&amp;gt;&amp;gt;+withdraw(amount:float):void&lt;br&gt;&amp;lt;&amp;lt;override&amp;gt;&amp;gt;+transfer_funds(target_account:str,amount:float):void&lt;br&gt;+add_percent(persent:float):void" style="rounded=0;whiteSpace=wrap;html=1;align=left;" vertex="1" parent="GQCeR2Az25gr7jT-zu-K-19">
          <mxGeometry y="90" width="411" height="110" as="geometry" />
        </mxCell>
        <mxCell id="GQCeR2Az25gr7jT-zu-K-20" value="API" style="whiteSpace=wrap;html=1;aspect=fixed;" vertex="1" parent="1">
          <mxGeometry x="250" y="60" width="80" height="80" as="geometry" />
        </mxCell>
        <mxCell id="GQCeR2Az25gr7jT-zu-K-21" value="" style="triangle;whiteSpace=wrap;html=1;rotation=-90;" vertex="1" parent="1">
          <mxGeometry x="425.75" y="640.25" width="30.5" height="50" as="geometry" />
        </mxCell>
        <mxCell id="GQCeR2Az25gr7jT-zu-K-22" value="" style="endArrow=none;html=1;rounded=0;entryX=0;entryY=0.5;entryDx=0;entryDy=0;" edge="1" parent="1" target="GQCeR2Az25gr7jT-zu-K-21">
          <mxGeometry width="50" height="50" relative="1" as="geometry">
            <mxPoint x="440.33" y="850" as="sourcePoint" />
            <mxPoint x="440.33" y="800" as="targetPoint" />
          </mxGeometry>
        </mxCell>
        <mxCell id="GQCeR2Az25gr7jT-zu-K-27" value="" style="html=1;verticalAlign=bottom;endArrow=open;dashed=1;endSize=8;curved=0;rounded=0;" edge="1" parent="1">
          <mxGeometry relative="1" as="geometry">
            <mxPoint x="390" y="280" as="sourcePoint" />
            <mxPoint x="300" y="140" as="targetPoint" />
          </mxGeometry>
        </mxCell>
        <mxCell id="GQCeR2Az25gr7jT-zu-K-28" value="" style="html=1;verticalAlign=bottom;endArrow=open;dashed=1;endSize=8;curved=0;rounded=0;" edge="1" parent="1">
          <mxGeometry relative="1" as="geometry">
            <mxPoint x="480" y="270" as="sourcePoint" />
            <mxPoint x="610" y="150" as="targetPoint" />
          </mxGeometry>
        </mxCell>
      </root>
    </mxGraphModel>
  </diagram>
</mxfile>
